<mxfile host="app.diagrams.net" modified="2023-05-18T12:36:39.697Z" agent="Mozilla/5.0 (Windows NT 10.0; Win64; x64) AppleWebKit/537.36 (KHTML, like Gecko) Chrome/112.0.0.0 Safari/537.36 OPR/98.0.0.0" etag="ZTY4yalyNy2_Ck7av-sc" version="21.3.2" type="device">
  <diagram name="Page-1" id="2YBvvXClWsGukQMizWep">
    <mxGraphModel dx="4621" dy="2493" grid="1" gridSize="10" guides="1" tooltips="1" connect="1" arrows="1" fold="1" page="1" pageScale="1" pageWidth="850" pageHeight="1100" math="0" shadow="0">
      <root>
        <mxCell id="0" />
        <mxCell id="1" parent="0" />
        <mxCell id="nNVV6iXkvTo8tEFnaiHL-19" value="" style="rounded=0;whiteSpace=wrap;html=1;direction=south;" parent="1" vertex="1">
          <mxGeometry x="-580" y="-110" width="2010" height="1310" as="geometry" />
        </mxCell>
        <mxCell id="xss07ACvVtE2y7tT9kN_-71" style="rounded=0;orthogonalLoop=1;jettySize=auto;html=1;exitX=1;exitY=0.3333333333333333;exitDx=0;exitDy=0;exitPerimeter=0;entryX=0;entryY=0.5;entryDx=0;entryDy=0;" parent="1" source="xss07ACvVtE2y7tT9kN_-3" target="xss07ACvVtE2y7tT9kN_-18" edge="1">
          <mxGeometry relative="1" as="geometry" />
        </mxCell>
        <mxCell id="xss07ACvVtE2y7tT9kN_-74" style="rounded=0;orthogonalLoop=1;jettySize=auto;html=1;exitX=1;exitY=0.3333333333333333;exitDx=0;exitDy=0;exitPerimeter=0;entryX=0;entryY=0.5;entryDx=0;entryDy=0;" parent="1" source="xss07ACvVtE2y7tT9kN_-3" target="xss07ACvVtE2y7tT9kN_-22" edge="1">
          <mxGeometry relative="1" as="geometry" />
        </mxCell>
        <mxCell id="xss07ACvVtE2y7tT9kN_-79" style="rounded=0;orthogonalLoop=1;jettySize=auto;html=1;exitX=1;exitY=0.3333333333333333;exitDx=0;exitDy=0;exitPerimeter=0;entryX=0;entryY=0.5;entryDx=0;entryDy=0;" parent="1" source="xss07ACvVtE2y7tT9kN_-3" target="xss07ACvVtE2y7tT9kN_-27" edge="1">
          <mxGeometry relative="1" as="geometry" />
        </mxCell>
        <mxCell id="xss07ACvVtE2y7tT9kN_-99" style="rounded=0;orthogonalLoop=1;jettySize=auto;html=1;exitX=1;exitY=0.3333333333333333;exitDx=0;exitDy=0;exitPerimeter=0;entryX=0;entryY=0.5;entryDx=0;entryDy=0;" parent="1" source="xss07ACvVtE2y7tT9kN_-3" target="xss07ACvVtE2y7tT9kN_-98" edge="1">
          <mxGeometry relative="1" as="geometry" />
        </mxCell>
        <mxCell id="nNVV6iXkvTo8tEFnaiHL-10" style="edgeStyle=orthogonalEdgeStyle;rounded=0;orthogonalLoop=1;jettySize=auto;html=1;endArrow=block;endFill=0;" parent="1" source="xss07ACvVtE2y7tT9kN_-3" edge="1">
          <mxGeometry relative="1" as="geometry">
            <mxPoint x="-485" y="680" as="targetPoint" />
          </mxGeometry>
        </mxCell>
        <mxCell id="wqSd798n81m4m5qbmPEF-8" style="rounded=0;orthogonalLoop=1;jettySize=auto;html=1;exitX=1;exitY=0.3333333333333333;exitDx=0;exitDy=0;exitPerimeter=0;entryX=0;entryY=0.5;entryDx=0;entryDy=0;" parent="1" source="xss07ACvVtE2y7tT9kN_-3" target="wqSd798n81m4m5qbmPEF-6" edge="1">
          <mxGeometry relative="1" as="geometry" />
        </mxCell>
        <mxCell id="wqSd798n81m4m5qbmPEF-10" style="rounded=0;orthogonalLoop=1;jettySize=auto;html=1;exitX=1;exitY=0.3333333333333333;exitDx=0;exitDy=0;exitPerimeter=0;entryX=0;entryY=0.5;entryDx=0;entryDy=0;" parent="1" source="xss07ACvVtE2y7tT9kN_-3" target="wqSd798n81m4m5qbmPEF-9" edge="1">
          <mxGeometry relative="1" as="geometry" />
        </mxCell>
        <mxCell id="WpptqNo0F4I48oG-hTSi-6" style="rounded=0;orthogonalLoop=1;jettySize=auto;html=1;exitX=1;exitY=0.3333333333333333;exitDx=0;exitDy=0;exitPerimeter=0;entryX=0;entryY=0.5;entryDx=0;entryDy=0;" parent="1" source="xss07ACvVtE2y7tT9kN_-3" target="WpptqNo0F4I48oG-hTSi-5" edge="1">
          <mxGeometry relative="1" as="geometry" />
        </mxCell>
        <mxCell id="85VyctHLHdoLGfLHJGnB-18" style="rounded=0;orthogonalLoop=1;jettySize=auto;html=1;exitX=1;exitY=0.3333333333333333;exitDx=0;exitDy=0;exitPerimeter=0;entryX=0;entryY=0.5;entryDx=0;entryDy=0;" edge="1" parent="1" source="xss07ACvVtE2y7tT9kN_-3" target="85VyctHLHdoLGfLHJGnB-13">
          <mxGeometry relative="1" as="geometry" />
        </mxCell>
        <mxCell id="85VyctHLHdoLGfLHJGnB-19" style="rounded=0;orthogonalLoop=1;jettySize=auto;html=1;exitX=1;exitY=0.3333333333333333;exitDx=0;exitDy=0;exitPerimeter=0;entryX=0;entryY=0.5;entryDx=0;entryDy=0;" edge="1" parent="1" source="xss07ACvVtE2y7tT9kN_-3" target="85VyctHLHdoLGfLHJGnB-12">
          <mxGeometry relative="1" as="geometry" />
        </mxCell>
        <mxCell id="85VyctHLHdoLGfLHJGnB-20" style="rounded=0;orthogonalLoop=1;jettySize=auto;html=1;exitX=1;exitY=0.3333333333333333;exitDx=0;exitDy=0;exitPerimeter=0;entryX=0;entryY=0.5;entryDx=0;entryDy=0;" edge="1" parent="1" source="xss07ACvVtE2y7tT9kN_-3" target="85VyctHLHdoLGfLHJGnB-14">
          <mxGeometry relative="1" as="geometry" />
        </mxCell>
        <mxCell id="85VyctHLHdoLGfLHJGnB-21" style="rounded=0;orthogonalLoop=1;jettySize=auto;html=1;exitX=1;exitY=0.3333333333333333;exitDx=0;exitDy=0;exitPerimeter=0;entryX=0;entryY=0.5;entryDx=0;entryDy=0;" edge="1" parent="1" source="xss07ACvVtE2y7tT9kN_-3" target="85VyctHLHdoLGfLHJGnB-15">
          <mxGeometry relative="1" as="geometry" />
        </mxCell>
        <mxCell id="85VyctHLHdoLGfLHJGnB-22" style="rounded=0;orthogonalLoop=1;jettySize=auto;html=1;exitX=1;exitY=0.3333333333333333;exitDx=0;exitDy=0;exitPerimeter=0;entryX=0;entryY=0.5;entryDx=0;entryDy=0;" edge="1" parent="1" source="xss07ACvVtE2y7tT9kN_-3" target="85VyctHLHdoLGfLHJGnB-16">
          <mxGeometry relative="1" as="geometry" />
        </mxCell>
        <mxCell id="85VyctHLHdoLGfLHJGnB-23" style="rounded=0;orthogonalLoop=1;jettySize=auto;html=1;exitX=1;exitY=0.3333333333333333;exitDx=0;exitDy=0;exitPerimeter=0;entryX=0;entryY=0.5;entryDx=0;entryDy=0;" edge="1" parent="1" source="xss07ACvVtE2y7tT9kN_-3" target="85VyctHLHdoLGfLHJGnB-17">
          <mxGeometry relative="1" as="geometry" />
        </mxCell>
        <mxCell id="xss07ACvVtE2y7tT9kN_-3" value="Administrator&lt;br&gt;" style="shape=umlActor;verticalLabelPosition=bottom;verticalAlign=top;html=1;outlineConnect=0;" parent="1" vertex="1">
          <mxGeometry x="-500" y="1040" width="30" height="60" as="geometry" />
        </mxCell>
        <mxCell id="xss07ACvVtE2y7tT9kN_-84" style="rounded=0;orthogonalLoop=1;jettySize=auto;html=1;exitX=1;exitY=0.3333333333333333;exitDx=0;exitDy=0;exitPerimeter=0;entryX=0;entryY=0.5;entryDx=0;entryDy=0;" parent="1" source="xss07ACvVtE2y7tT9kN_-4" target="xss07ACvVtE2y7tT9kN_-33" edge="1">
          <mxGeometry relative="1" as="geometry" />
        </mxCell>
        <mxCell id="xss07ACvVtE2y7tT9kN_-85" style="rounded=0;orthogonalLoop=1;jettySize=auto;html=1;exitX=1;exitY=0.3333333333333333;exitDx=0;exitDy=0;exitPerimeter=0;entryX=0;entryY=0.5;entryDx=0;entryDy=0;" parent="1" source="xss07ACvVtE2y7tT9kN_-4" target="xss07ACvVtE2y7tT9kN_-34" edge="1">
          <mxGeometry relative="1" as="geometry" />
        </mxCell>
        <mxCell id="xss07ACvVtE2y7tT9kN_-87" style="rounded=0;orthogonalLoop=1;jettySize=auto;html=1;exitX=1;exitY=0.3333333333333333;exitDx=0;exitDy=0;exitPerimeter=0;entryX=0;entryY=0.5;entryDx=0;entryDy=0;" parent="1" source="xss07ACvVtE2y7tT9kN_-4" target="xss07ACvVtE2y7tT9kN_-35" edge="1">
          <mxGeometry relative="1" as="geometry" />
        </mxCell>
        <mxCell id="nNVV6iXkvTo8tEFnaiHL-9" style="edgeStyle=orthogonalEdgeStyle;rounded=0;orthogonalLoop=1;jettySize=auto;html=1;endArrow=block;endFill=0;" parent="1" source="xss07ACvVtE2y7tT9kN_-4" edge="1">
          <mxGeometry relative="1" as="geometry">
            <mxPoint x="-485" y="320" as="targetPoint" />
          </mxGeometry>
        </mxCell>
        <mxCell id="wqSd798n81m4m5qbmPEF-7" style="rounded=0;orthogonalLoop=1;jettySize=auto;html=1;exitX=1;exitY=0.3333333333333333;exitDx=0;exitDy=0;exitPerimeter=0;entryX=0;entryY=0.5;entryDx=0;entryDy=0;" parent="1" source="xss07ACvVtE2y7tT9kN_-4" target="wqSd798n81m4m5qbmPEF-5" edge="1">
          <mxGeometry relative="1" as="geometry" />
        </mxCell>
        <mxCell id="85VyctHLHdoLGfLHJGnB-8" style="rounded=0;orthogonalLoop=1;jettySize=auto;html=1;exitX=1;exitY=0.3333333333333333;exitDx=0;exitDy=0;exitPerimeter=0;entryX=0;entryY=0.5;entryDx=0;entryDy=0;" edge="1" parent="1" source="xss07ACvVtE2y7tT9kN_-4" target="85VyctHLHdoLGfLHJGnB-3">
          <mxGeometry relative="1" as="geometry" />
        </mxCell>
        <mxCell id="85VyctHLHdoLGfLHJGnB-9" style="rounded=0;orthogonalLoop=1;jettySize=auto;html=1;exitX=1;exitY=0.3333333333333333;exitDx=0;exitDy=0;exitPerimeter=0;entryX=0;entryY=0.5;entryDx=0;entryDy=0;" edge="1" parent="1" source="xss07ACvVtE2y7tT9kN_-4" target="85VyctHLHdoLGfLHJGnB-5">
          <mxGeometry relative="1" as="geometry" />
        </mxCell>
        <mxCell id="85VyctHLHdoLGfLHJGnB-10" style="rounded=0;orthogonalLoop=1;jettySize=auto;html=1;exitX=1;exitY=0.3333333333333333;exitDx=0;exitDy=0;exitPerimeter=0;entryX=0;entryY=0.5;entryDx=0;entryDy=0;" edge="1" parent="1" source="xss07ACvVtE2y7tT9kN_-4" target="85VyctHLHdoLGfLHJGnB-6">
          <mxGeometry relative="1" as="geometry" />
        </mxCell>
        <mxCell id="85VyctHLHdoLGfLHJGnB-11" style="rounded=0;orthogonalLoop=1;jettySize=auto;html=1;exitX=1;exitY=0.3333333333333333;exitDx=0;exitDy=0;exitPerimeter=0;entryX=0;entryY=0.5;entryDx=0;entryDy=0;" edge="1" parent="1" source="xss07ACvVtE2y7tT9kN_-4" target="85VyctHLHdoLGfLHJGnB-7">
          <mxGeometry relative="1" as="geometry" />
        </mxCell>
        <mxCell id="xss07ACvVtE2y7tT9kN_-4" value="Gardener" style="shape=umlActor;verticalLabelPosition=bottom;verticalAlign=top;html=1;outlineConnect=0;" parent="1" vertex="1">
          <mxGeometry x="-500" y="600" width="30" height="60" as="geometry" />
        </mxCell>
        <mxCell id="xss07ACvVtE2y7tT9kN_-91" style="rounded=0;orthogonalLoop=1;jettySize=auto;html=1;exitX=1;exitY=0.3333333333333333;exitDx=0;exitDy=0;exitPerimeter=0;entryX=0;entryY=0.5;entryDx=0;entryDy=0;" parent="1" source="xss07ACvVtE2y7tT9kN_-16" target="xss07ACvVtE2y7tT9kN_-54" edge="1">
          <mxGeometry relative="1" as="geometry" />
        </mxCell>
        <mxCell id="xss07ACvVtE2y7tT9kN_-95" style="rounded=0;orthogonalLoop=1;jettySize=auto;html=1;exitX=1;exitY=0.3333333333333333;exitDx=0;exitDy=0;exitPerimeter=0;entryX=0;entryY=0.5;entryDx=0;entryDy=0;" parent="1" source="xss07ACvVtE2y7tT9kN_-16" target="xss07ACvVtE2y7tT9kN_-36" edge="1">
          <mxGeometry relative="1" as="geometry" />
        </mxCell>
        <mxCell id="nNVV6iXkvTo8tEFnaiHL-8" style="edgeStyle=orthogonalEdgeStyle;rounded=0;orthogonalLoop=1;jettySize=auto;html=1;endArrow=block;endFill=0;" parent="1" source="xss07ACvVtE2y7tT9kN_-16" edge="1">
          <mxGeometry relative="1" as="geometry">
            <mxPoint x="-485" y="100" as="targetPoint" />
          </mxGeometry>
        </mxCell>
        <mxCell id="wqSd798n81m4m5qbmPEF-2" style="rounded=0;orthogonalLoop=1;jettySize=auto;html=1;exitX=1;exitY=0.3333333333333333;exitDx=0;exitDy=0;exitPerimeter=0;entryX=0;entryY=0.5;entryDx=0;entryDy=0;" parent="1" source="xss07ACvVtE2y7tT9kN_-16" target="wqSd798n81m4m5qbmPEF-1" edge="1">
          <mxGeometry relative="1" as="geometry" />
        </mxCell>
        <mxCell id="wqSd798n81m4m5qbmPEF-4" style="rounded=0;orthogonalLoop=1;jettySize=auto;html=1;exitX=1;exitY=0.3333333333333333;exitDx=0;exitDy=0;exitPerimeter=0;entryX=0;entryY=0.5;entryDx=0;entryDy=0;" parent="1" source="xss07ACvVtE2y7tT9kN_-16" target="wqSd798n81m4m5qbmPEF-3" edge="1">
          <mxGeometry relative="1" as="geometry" />
        </mxCell>
        <mxCell id="85VyctHLHdoLGfLHJGnB-2" style="rounded=0;orthogonalLoop=1;jettySize=auto;html=1;exitX=1;exitY=0.3333333333333333;exitDx=0;exitDy=0;exitPerimeter=0;entryX=0;entryY=0.5;entryDx=0;entryDy=0;" edge="1" parent="1" source="xss07ACvVtE2y7tT9kN_-16" target="85VyctHLHdoLGfLHJGnB-1">
          <mxGeometry relative="1" as="geometry" />
        </mxCell>
        <mxCell id="xss07ACvVtE2y7tT9kN_-16" value="User" style="shape=umlActor;verticalLabelPosition=bottom;verticalAlign=top;html=1;outlineConnect=0;" parent="1" vertex="1">
          <mxGeometry x="-500" y="240" width="30" height="60" as="geometry" />
        </mxCell>
        <mxCell id="xss07ACvVtE2y7tT9kN_-97" style="rounded=0;orthogonalLoop=1;jettySize=auto;html=1;exitX=1;exitY=0.3333333333333333;exitDx=0;exitDy=0;exitPerimeter=0;entryX=0;entryY=0.5;entryDx=0;entryDy=0;" parent="1" source="xss07ACvVtE2y7tT9kN_-17" target="xss07ACvVtE2y7tT9kN_-38" edge="1">
          <mxGeometry relative="1" as="geometry" />
        </mxCell>
        <mxCell id="nNVV6iXkvTo8tEFnaiHL-4" style="rounded=0;orthogonalLoop=1;jettySize=auto;html=1;exitX=1;exitY=0.3333333333333333;exitDx=0;exitDy=0;exitPerimeter=0;entryX=0;entryY=0.5;entryDx=0;entryDy=0;" parent="1" source="xss07ACvVtE2y7tT9kN_-17" target="xss07ACvVtE2y7tT9kN_-39" edge="1">
          <mxGeometry relative="1" as="geometry" />
        </mxCell>
        <mxCell id="WpptqNo0F4I48oG-hTSi-2" style="rounded=0;orthogonalLoop=1;jettySize=auto;html=1;exitX=1;exitY=0.3333333333333333;exitDx=0;exitDy=0;exitPerimeter=0;entryX=0;entryY=0.5;entryDx=0;entryDy=0;" parent="1" source="xss07ACvVtE2y7tT9kN_-17" target="WpptqNo0F4I48oG-hTSi-1" edge="1">
          <mxGeometry relative="1" as="geometry" />
        </mxCell>
        <mxCell id="xss07ACvVtE2y7tT9kN_-17" value="Guest" style="shape=umlActor;verticalLabelPosition=bottom;verticalAlign=top;html=1;outlineConnect=0;" parent="1" vertex="1">
          <mxGeometry x="-500" y="20" width="30" height="60" as="geometry" />
        </mxCell>
        <mxCell id="xss07ACvVtE2y7tT9kN_-18" value="Create/Edit/Delete User" style="ellipse;whiteSpace=wrap;html=1;" parent="1" vertex="1">
          <mxGeometry x="-67.5" y="1070" width="180" height="50" as="geometry" />
        </mxCell>
        <mxCell id="xss07ACvVtE2y7tT9kN_-22" value="Create/Edit/Delete Sensor Station" style="ellipse;whiteSpace=wrap;html=1;" parent="1" vertex="1">
          <mxGeometry x="113.75" y="650" width="180" height="50" as="geometry" />
        </mxCell>
        <mxCell id="xss07ACvVtE2y7tT9kN_-27" value="Create/Edit/Delete Access point" style="ellipse;whiteSpace=wrap;html=1;" parent="1" vertex="1">
          <mxGeometry x="291.25" y="710" width="180" height="50" as="geometry" />
        </mxCell>
        <mxCell id="xss07ACvVtE2y7tT9kN_-33" value="Set Web-App/Measurements Intervals" style="ellipse;whiteSpace=wrap;html=1;" parent="1" vertex="1">
          <mxGeometry x="113.75" y="370" width="180" height="50" as="geometry" />
        </mxCell>
        <mxCell id="xss07ACvVtE2y7tT9kN_-34" value="Set Sensor&#39;s Thresholds" style="ellipse;whiteSpace=wrap;html=1;" parent="1" vertex="1">
          <mxGeometry x="1040" y="525" width="180" height="50" as="geometry" />
        </mxCell>
        <mxCell id="xss07ACvVtE2y7tT9kN_-35" value="Approve/Deny/Delete Gallery&#39;s Images" style="ellipse;whiteSpace=wrap;html=1;" parent="1" vertex="1">
          <mxGeometry x="845" y="500" width="180" height="50" as="geometry" />
        </mxCell>
        <mxCell id="xss07ACvVtE2y7tT9kN_-36" value="Add/Remove Plant To Followed Plants" style="ellipse;whiteSpace=wrap;html=1;" parent="1" vertex="1">
          <mxGeometry x="660" y="240" width="180" height="50" as="geometry" />
        </mxCell>
        <mxCell id="xss07ACvVtE2y7tT9kN_-38" value="Upload Picture To Gallery" style="ellipse;whiteSpace=wrap;html=1;" parent="1" vertex="1">
          <mxGeometry x="840" y="120" width="180" height="50" as="geometry" />
        </mxCell>
        <mxCell id="xss07ACvVtE2y7tT9kN_-39" value="Register" style="ellipse;whiteSpace=wrap;html=1;" parent="1" vertex="1">
          <mxGeometry x="-247.5" width="180" height="50" as="geometry" />
        </mxCell>
        <mxCell id="xss07ACvVtE2y7tT9kN_-54" value="Log in/Log out" style="ellipse;whiteSpace=wrap;html=1;" parent="1" vertex="1">
          <mxGeometry x="-247.5" y="70" width="180" height="50" as="geometry" />
        </mxCell>
        <mxCell id="xss07ACvVtE2y7tT9kN_-64" value="&lt;font size=&quot;1&quot; style=&quot;&quot;&gt;&lt;b style=&quot;font-size: 20px;&quot;&gt;Actor&lt;/b&gt;&lt;/font&gt;" style="text;html=1;align=center;verticalAlign=middle;resizable=0;points=[];autosize=1;strokeColor=none;fillColor=none;" parent="1" vertex="1">
          <mxGeometry x="-525" y="-80" width="80" height="40" as="geometry" />
        </mxCell>
        <mxCell id="xss07ACvVtE2y7tT9kN_-65" value="&lt;font size=&quot;1&quot; style=&quot;&quot;&gt;&lt;b style=&quot;font-size: 20px;&quot;&gt;User Managing&lt;/b&gt;&lt;/font&gt;" style="text;html=1;align=center;verticalAlign=middle;resizable=0;points=[];autosize=1;strokeColor=none;fillColor=none;" parent="1" vertex="1">
          <mxGeometry x="-62.5" y="-80" width="170" height="40" as="geometry" />
        </mxCell>
        <mxCell id="xss07ACvVtE2y7tT9kN_-66" value="&lt;font size=&quot;1&quot; style=&quot;&quot;&gt;&lt;b style=&quot;font-size: 20px;&quot;&gt;Greenhouse&lt;/b&gt;&lt;/font&gt;" style="text;html=1;align=center;verticalAlign=middle;resizable=0;points=[];autosize=1;strokeColor=none;fillColor=none;" parent="1" vertex="1">
          <mxGeometry x="132.5" y="-80" width="140" height="40" as="geometry" />
        </mxCell>
        <mxCell id="xss07ACvVtE2y7tT9kN_-67" value="&lt;font size=&quot;1&quot; style=&quot;&quot;&gt;&lt;b style=&quot;font-size: 20px;&quot;&gt;Accesspoint&lt;/b&gt;&lt;/font&gt;" style="text;html=1;align=center;verticalAlign=middle;resizable=0;points=[];autosize=1;strokeColor=none;fillColor=none;" parent="1" vertex="1">
          <mxGeometry x="310" y="-80" width="140" height="40" as="geometry" />
        </mxCell>
        <mxCell id="xss07ACvVtE2y7tT9kN_-68" value="&lt;font size=&quot;1&quot; style=&quot;&quot;&gt;&lt;b style=&quot;font-size: 20px;&quot;&gt;Assigning&lt;/b&gt;&lt;/font&gt;" style="text;html=1;align=center;verticalAlign=middle;resizable=0;points=[];autosize=1;strokeColor=none;fillColor=none;" parent="1" vertex="1">
          <mxGeometry x="502.5" y="-80" width="120" height="40" as="geometry" />
        </mxCell>
        <mxCell id="xss07ACvVtE2y7tT9kN_-69" value="&lt;font size=&quot;1&quot; style=&quot;&quot;&gt;&lt;b style=&quot;font-size: 20px;&quot;&gt;Plant&lt;/b&gt;&lt;/font&gt;" style="text;html=1;align=center;verticalAlign=middle;resizable=0;points=[];autosize=1;strokeColor=none;fillColor=none;" parent="1" vertex="1">
          <mxGeometry x="715" y="-80" width="70" height="40" as="geometry" />
        </mxCell>
        <mxCell id="xss07ACvVtE2y7tT9kN_-70" value="&lt;font size=&quot;1&quot; style=&quot;&quot;&gt;&lt;b style=&quot;font-size: 20px;&quot;&gt;Login&lt;/b&gt;&lt;/font&gt;" style="text;html=1;align=center;verticalAlign=middle;resizable=0;points=[];autosize=1;strokeColor=none;fillColor=none;" parent="1" vertex="1">
          <mxGeometry x="-197.5" y="-80" width="80" height="40" as="geometry" />
        </mxCell>
        <mxCell id="xss07ACvVtE2y7tT9kN_-98" value="Assign/Remove Gardener to Sensor Station" style="ellipse;whiteSpace=wrap;html=1;" parent="1" vertex="1">
          <mxGeometry x="473.75" y="880" width="180" height="50" as="geometry" />
        </mxCell>
        <mxCell id="xss07ACvVtE2y7tT9kN_-110" value="&lt;font size=&quot;1&quot; style=&quot;&quot;&gt;&lt;b style=&quot;&quot;&gt;&lt;i style=&quot;font-size: 27px;&quot;&gt;Plant Health Web App&lt;/i&gt;&lt;/b&gt;&lt;/font&gt;" style="text;html=1;align=center;verticalAlign=middle;resizable=0;points=[];autosize=1;strokeColor=none;fillColor=none;" parent="1" vertex="1">
          <mxGeometry x="233.75" y="-160" width="300" height="50" as="geometry" />
        </mxCell>
        <mxCell id="wqSd798n81m4m5qbmPEF-1" value="View/Filter/Sort Plant Catalogue" style="ellipse;whiteSpace=wrap;html=1;" parent="1" vertex="1">
          <mxGeometry x="660" y="140" width="180" height="50" as="geometry" />
        </mxCell>
        <mxCell id="wqSd798n81m4m5qbmPEF-3" value="View/Filter/Sort Followed Plants" style="ellipse;whiteSpace=wrap;html=1;" parent="1" vertex="1">
          <mxGeometry x="660" y="190" width="180" height="50" as="geometry" />
        </mxCell>
        <mxCell id="wqSd798n81m4m5qbmPEF-5" value="View/Filter/Sort Assigned Greenhouses" style="ellipse;whiteSpace=wrap;html=1;" parent="1" vertex="1">
          <mxGeometry x="113.75" y="270" width="180" height="50" as="geometry" />
        </mxCell>
        <mxCell id="wqSd798n81m4m5qbmPEF-6" value="View/Filter/Sort All Sensor Stations" style="ellipse;whiteSpace=wrap;html=1;" parent="1" vertex="1">
          <mxGeometry x="112.5" y="600" width="180" height="50" as="geometry" />
        </mxCell>
        <mxCell id="wqSd798n81m4m5qbmPEF-9" value="View/Filter/Sort&amp;nbsp;Alccess points" style="ellipse;whiteSpace=wrap;html=1;" parent="1" vertex="1">
          <mxGeometry x="293.75" y="660" width="180" height="50" as="geometry" />
        </mxCell>
        <mxCell id="WpptqNo0F4I48oG-hTSi-1" value="View Plant&#39;s Gallery" style="ellipse;whiteSpace=wrap;html=1;" parent="1" vertex="1">
          <mxGeometry x="845" y="70" width="180" height="50" as="geometry" />
        </mxCell>
        <mxCell id="WpptqNo0F4I48oG-hTSi-5" value="Generate QR Code" style="ellipse;whiteSpace=wrap;html=1;" parent="1" vertex="1">
          <mxGeometry x="660" y="660" width="180" height="50" as="geometry" />
        </mxCell>
        <mxCell id="85VyctHLHdoLGfLHJGnB-1" value="Edit Account Details" style="ellipse;whiteSpace=wrap;html=1;" vertex="1" parent="1">
          <mxGeometry x="-67.5" y="90" width="180" height="50" as="geometry" />
        </mxCell>
        <mxCell id="85VyctHLHdoLGfLHJGnB-3" value="View Greenhouse&#39;s Data" style="ellipse;whiteSpace=wrap;html=1;" vertex="1" parent="1">
          <mxGeometry x="113.75" y="320" width="180" height="50" as="geometry" />
        </mxCell>
        <mxCell id="85VyctHLHdoLGfLHJGnB-5" value="Reset Alarm Count" style="ellipse;whiteSpace=wrap;html=1;" vertex="1" parent="1">
          <mxGeometry x="107.5" y="520" width="180" height="50" as="geometry" />
        </mxCell>
        <mxCell id="85VyctHLHdoLGfLHJGnB-7" value="Add/Remove Plant to/from Greenhouse" style="ellipse;whiteSpace=wrap;html=1;" vertex="1" parent="1">
          <mxGeometry x="113.75" y="420" width="180" height="50" as="geometry" />
        </mxCell>
        <mxCell id="85VyctHLHdoLGfLHJGnB-12" value="Pair Sensor Station to Access Point" style="ellipse;whiteSpace=wrap;html=1;" vertex="1" parent="1">
          <mxGeometry x="473.75" y="830" width="180" height="50" as="geometry" />
        </mxCell>
        <mxCell id="85VyctHLHdoLGfLHJGnB-13" value="View/Filter/Sort All Users" style="ellipse;whiteSpace=wrap;html=1;" vertex="1" parent="1">
          <mxGeometry x="-67.5" y="1020" width="180" height="50" as="geometry" />
        </mxCell>
        <mxCell id="85VyctHLHdoLGfLHJGnB-14" value="View/Filter/Sort All Logs" style="ellipse;whiteSpace=wrap;html=1;" vertex="1" parent="1">
          <mxGeometry x="1240" y="650" width="180" height="50" as="geometry" />
        </mxCell>
        <mxCell id="85VyctHLHdoLGfLHJGnB-15" value="View/Filter/Sort All Measurements" style="ellipse;whiteSpace=wrap;html=1;" vertex="1" parent="1">
          <mxGeometry x="1040" y="855" width="180" height="50" as="geometry" />
        </mxCell>
        <mxCell id="85VyctHLHdoLGfLHJGnB-16" value="Delete Measurements" style="ellipse;whiteSpace=wrap;html=1;" vertex="1" parent="1">
          <mxGeometry x="1040" y="905" width="180" height="50" as="geometry" />
        </mxCell>
        <mxCell id="85VyctHLHdoLGfLHJGnB-17" value="View/Approve/Deny/Delete All Images" style="ellipse;whiteSpace=wrap;html=1;" vertex="1" parent="1">
          <mxGeometry x="845" y="680" width="180" height="50" as="geometry" />
        </mxCell>
        <mxCell id="85VyctHLHdoLGfLHJGnB-26" value="&lt;font size=&quot;1&quot; style=&quot;&quot;&gt;&lt;b style=&quot;font-size: 20px;&quot;&gt;Image&lt;/b&gt;&lt;/font&gt;" style="text;html=1;align=center;verticalAlign=middle;resizable=0;points=[];autosize=1;strokeColor=none;fillColor=none;" vertex="1" parent="1">
          <mxGeometry x="890" y="-80" width="80" height="40" as="geometry" />
        </mxCell>
        <mxCell id="85VyctHLHdoLGfLHJGnB-27" value="&lt;font size=&quot;1&quot; style=&quot;&quot;&gt;&lt;b style=&quot;font-size: 20px;&quot;&gt;Measurement&lt;/b&gt;&lt;/font&gt;" style="text;html=1;align=center;verticalAlign=middle;resizable=0;points=[];autosize=1;strokeColor=none;fillColor=none;" vertex="1" parent="1">
          <mxGeometry x="1040" y="-80" width="150" height="40" as="geometry" />
        </mxCell>
        <mxCell id="85VyctHLHdoLGfLHJGnB-28" value="&lt;font size=&quot;1&quot; style=&quot;&quot;&gt;&lt;b style=&quot;font-size: 20px;&quot;&gt;Logs&lt;/b&gt;&lt;/font&gt;" style="text;html=1;align=center;verticalAlign=middle;resizable=0;points=[];autosize=1;strokeColor=none;fillColor=none;" vertex="1" parent="1">
          <mxGeometry x="1260" y="-80" width="70" height="40" as="geometry" />
        </mxCell>
        <mxCell id="85VyctHLHdoLGfLHJGnB-29" value="" style="rounded=0;orthogonalLoop=1;jettySize=auto;html=1;exitX=1;exitY=0.3333333333333333;exitDx=0;exitDy=0;exitPerimeter=0;entryX=0;entryY=0.5;entryDx=0;entryDy=0;" edge="1" parent="1" source="xss07ACvVtE2y7tT9kN_-4" target="85VyctHLHdoLGfLHJGnB-6">
          <mxGeometry relative="1" as="geometry">
            <mxPoint x="-470" y="470" as="sourcePoint" />
            <mxPoint x="1065" y="525" as="targetPoint" />
          </mxGeometry>
        </mxCell>
        <mxCell id="85VyctHLHdoLGfLHJGnB-6" value="Set Alarm to Fixed" style="ellipse;whiteSpace=wrap;html=1;" vertex="1" parent="1">
          <mxGeometry x="107.5" y="470" width="180" height="50" as="geometry" />
        </mxCell>
        <mxCell id="85VyctHLHdoLGfLHJGnB-32" value="&lt;font size=&quot;1&quot; style=&quot;&quot;&gt;&lt;b style=&quot;font-size: 20px;&quot;&gt;User Managing&lt;/b&gt;&lt;/font&gt;" style="text;html=1;align=center;verticalAlign=middle;resizable=0;points=[];autosize=1;strokeColor=none;fillColor=none;" vertex="1" parent="1">
          <mxGeometry x="-62.5" y="1140" width="170" height="40" as="geometry" />
        </mxCell>
        <mxCell id="85VyctHLHdoLGfLHJGnB-33" value="&lt;font size=&quot;1&quot; style=&quot;&quot;&gt;&lt;b style=&quot;font-size: 20px;&quot;&gt;Greenhouse&lt;/b&gt;&lt;/font&gt;" style="text;html=1;align=center;verticalAlign=middle;resizable=0;points=[];autosize=1;strokeColor=none;fillColor=none;" vertex="1" parent="1">
          <mxGeometry x="132.5" y="1140" width="140" height="40" as="geometry" />
        </mxCell>
        <mxCell id="85VyctHLHdoLGfLHJGnB-34" value="&lt;font size=&quot;1&quot; style=&quot;&quot;&gt;&lt;b style=&quot;font-size: 20px;&quot;&gt;Accesspoint&lt;/b&gt;&lt;/font&gt;" style="text;html=1;align=center;verticalAlign=middle;resizable=0;points=[];autosize=1;strokeColor=none;fillColor=none;" vertex="1" parent="1">
          <mxGeometry x="310" y="1140" width="140" height="40" as="geometry" />
        </mxCell>
        <mxCell id="85VyctHLHdoLGfLHJGnB-35" value="&lt;font size=&quot;1&quot; style=&quot;&quot;&gt;&lt;b style=&quot;font-size: 20px;&quot;&gt;Assigning&lt;/b&gt;&lt;/font&gt;" style="text;html=1;align=center;verticalAlign=middle;resizable=0;points=[];autosize=1;strokeColor=none;fillColor=none;" vertex="1" parent="1">
          <mxGeometry x="502.5" y="1140" width="120" height="40" as="geometry" />
        </mxCell>
        <mxCell id="85VyctHLHdoLGfLHJGnB-36" value="&lt;font size=&quot;1&quot; style=&quot;&quot;&gt;&lt;b style=&quot;font-size: 20px;&quot;&gt;Plant&lt;/b&gt;&lt;/font&gt;" style="text;html=1;align=center;verticalAlign=middle;resizable=0;points=[];autosize=1;strokeColor=none;fillColor=none;" vertex="1" parent="1">
          <mxGeometry x="715" y="1140" width="70" height="40" as="geometry" />
        </mxCell>
        <mxCell id="85VyctHLHdoLGfLHJGnB-37" value="&lt;font size=&quot;1&quot; style=&quot;&quot;&gt;&lt;b style=&quot;font-size: 20px;&quot;&gt;Login&lt;/b&gt;&lt;/font&gt;" style="text;html=1;align=center;verticalAlign=middle;resizable=0;points=[];autosize=1;strokeColor=none;fillColor=none;" vertex="1" parent="1">
          <mxGeometry x="-197.5" y="1140" width="80" height="40" as="geometry" />
        </mxCell>
        <mxCell id="85VyctHLHdoLGfLHJGnB-38" value="&lt;font size=&quot;1&quot; style=&quot;&quot;&gt;&lt;b style=&quot;font-size: 20px;&quot;&gt;Image&lt;/b&gt;&lt;/font&gt;" style="text;html=1;align=center;verticalAlign=middle;resizable=0;points=[];autosize=1;strokeColor=none;fillColor=none;" vertex="1" parent="1">
          <mxGeometry x="890" y="1140" width="80" height="40" as="geometry" />
        </mxCell>
        <mxCell id="85VyctHLHdoLGfLHJGnB-39" value="&lt;font size=&quot;1&quot; style=&quot;&quot;&gt;&lt;b style=&quot;font-size: 20px;&quot;&gt;Measurement&lt;/b&gt;&lt;/font&gt;" style="text;html=1;align=center;verticalAlign=middle;resizable=0;points=[];autosize=1;strokeColor=none;fillColor=none;" vertex="1" parent="1">
          <mxGeometry x="1040" y="1140" width="150" height="40" as="geometry" />
        </mxCell>
        <mxCell id="85VyctHLHdoLGfLHJGnB-40" value="&lt;font size=&quot;1&quot; style=&quot;&quot;&gt;&lt;b style=&quot;font-size: 20px;&quot;&gt;Logs&lt;/b&gt;&lt;/font&gt;" style="text;html=1;align=center;verticalAlign=middle;resizable=0;points=[];autosize=1;strokeColor=none;fillColor=none;" vertex="1" parent="1">
          <mxGeometry x="1260" y="1140" width="70" height="40" as="geometry" />
        </mxCell>
      </root>
    </mxGraphModel>
  </diagram>
</mxfile>
